<svg xmlns="http://www.w3.org/2000/svg" version="1.1" xmlns:xlink="http://www.w3.org/1999/xlink" xmlns:svgjs="http://svgjs.com/svgjs" width="512" height="512" x="0" y="0" viewBox="0 0 32 32" style="enable-background:new 0 0 512 512" xml:space="preserve" class=""><g><circle cx="16" cy="9" r="8" fill="#000000" data-original="#000000" class=""></circle><path d="M5 31h12.36a8.97 8.97 0 0 1-1.83-12.01 10.047 10.047 0 0 1-6.8-3.13A11.013 11.013 0 0 0 2 26v2a3.009 3.009 0 0 0 3 3z" fill="#000000" data-original="#000000" class=""></path><path d="M16 24a7 7 0 1 0 7-7 7.008 7.008 0 0 0-7 7zm8-2v1h1a1 1 0 0 1 0 2h-1v1a1 1 0 0 1-2 0v-1h-1a1 1 0 0 1 0-2h1v-1a1 1 0 0 1 2 0z" fill="#000000" data-original="#000000" class=""></path></g></svg>